{"accessors" : [{"bufferView" : 0, "byteOffset" : 0, "componentType" : 5123, "count" : 30, "type" : "SCALAR", "max" : [19], "min" : [0]}, {"bufferView" : 1, "byteOffset" : 0, "componentType" : 5126, "count" : 20, "type" : "VEC3", "max" : [11.850390434265137, 11.87007999420166, 20.23621940612793], "min" : [0, 0, 0]}, {"bufferView" : 1, "byteOffset" : 12, "componentType" : 5126, "count" : 20, "type" : "VEC3", "max" : [1.0000044107437134, 1.0000044107437134, -0], "min" : [-1.0000044107437134, -1.0000044107437134, -1.0000044107437134]}, {"bufferView" : 0, "byteOffset" : 60, "componentType" : 5123, "count" : 6, "type" : "SCALAR", "max" : [3], "min" : [0]}, {"bufferView" : 2, "byteOffset" : 0, "componentType" : 5126, "count" : 4, "type" : "VEC3", "max" : [11.850390434265137, 11.87007999420166, 0], "min" : [0, 0, 0]}, {"bufferView" : 2, "byteOffset" : 12, "componentType" : 5126, "count" : 4, "type" : "VEC3", "max" : [0, 0, -1.0000044107437134], "min" : [0, 0, -1.0000044107437134]}, {"bufferView" : 0, "byteOffset" : 72, "componentType" : 5123, "count" : 6, "type" : "SCALAR", "max" : [3], "min" : [0]}, {"bufferView" : 3, "byteOffset" : 0, "componentType" : 5126, "count" : 4, "type" : "VEC3", "max" : [11.850390434265137, 11.87007999420166, 0], "min" : [0, 0, 0]}, {"bufferView" : 3, "byteOffset" : 12, "componentType" : 5126, "count" : 4, "type" : "VEC3", "max" : [-0, -0, 1.0000044107437134], "min" : [-0, -0, 1.0000044107437134]}, {"bufferView" : 0, "byteOffset" : 84, "componentType" : 5123, "count" : 30, "type" : "SCALAR", "max" : [19], "min" : [0]}, {"bufferView" : 4, "byteOffset" : 0, "componentType" : 5126, "count" : 20, "type" : "VEC3", "max" : [11.850390434265137, 11.87007999420166, 32.874019622802734], "min" : [0, 0, 0]}, {"bufferView" : 4, "byteOffset" : 12, "componentType" : 5126, "count" : 20, "type" : "VEC3", "max" : [1.0000044107437134, 1.0000044107437134, -0], "min" : [-1.0000044107437134, -1.0000044107437134, -1.0000044107437134]}, {"bufferView" : 0, "byteOffset" : 144, "componentType" : 5123, "count" : 6, "type" : "SCALAR", "max" : [3], "min" : [0]}, {"bufferView" : 5, "byteOffset" : 0, "componentType" : 5126, "count" : 4, "type" : "VEC3", "max" : [11.850390434265137, 11.87007999420166, 0], "min" : [0, 0, 0]}, {"bufferView" : 5, "byteOffset" : 12, "componentType" : 5126, "count" : 4, "type" : "VEC3", "max" : [-0, -0, 1.0000044107437134], "min" : [-0, -0, 1.0000044107437134]}, {"bufferView" : 5, "byteOffset" : 24, "componentType" : 5126, "count" : 4, "type" : "VEC2", "max" : [0, 0.35773611068725586], "min" : [-1, -0]}, {"bufferView" : 0, "byteOffset" : 156, "componentType" : 5123, "count" : 30, "type" : "SCALAR", "max" : [19], "min" : [0]}, {"bufferView" : 6, "byteOffset" : 0, "componentType" : 5126, "count" : 20, "type" : "VEC3", "max" : [11.850390434265137, 11.87007999420166, 20.23621940612793], "min" : [0, 0, 0]}, {"bufferView" : 6, "byteOffset" : 12, "componentType" : 5126, "count" : 20, "type" : "VEC3", "max" : [1.0000044107437134, 1.0000044107437134, -0], "min" : [-1.0000044107437134, -1.0000044107437134, -1.0000044107437134]}, {"bufferView" : 0, "byteOffset" : 216, "componentType" : 5123, "count" : 6, "type" : "SCALAR", "max" : [3], "min" : [0]}, {"bufferView" : 7, "byteOffset" : 0, "componentType" : 5126, "count" : 4, "type" : "VEC3", "max" : [11.850390434265137, 11.87007999420166, 0], "min" : [0, 0, 0]}, {"bufferView" : 7, "byteOffset" : 12, "componentType" : 5126, "count" : 4, "type" : "VEC3", "max" : [0, 0, -1.0000044107437134], "min" : [0, 0, -1.0000044107437134]}, {"bufferView" : 0, "byteOffset" : 228, "componentType" : 5123, "count" : 6, "type" : "SCALAR", "max" : [3], "min" : [0]}, {"bufferView" : 8, "byteOffset" : 0, "componentType" : 5126, "count" : 4, "type" : "VEC3", "max" : [11.850390434265137, 11.87007999420166, 0], "min" : [0, 0, 0]}, {"bufferView" : 8, "byteOffset" : 12, "componentType" : 5126, "count" : 4, "type" : "VEC3", "max" : [-0, -0, 1.0000044107437134], "min" : [-0, -0, 1.0000044107437134]}, {"bufferView" : 0, "byteOffset" : 240, "componentType" : 5123, "count" : 30, "type" : "SCALAR", "max" : [19], "min" : [0]}, {"bufferView" : 9, "byteOffset" : 0, "componentType" : 5126, "count" : 20, "type" : "VEC3", "max" : [11.850390434265137, 11.87007999420166, 32.874019622802734], "min" : [0, 0, 0]}, {"bufferView" : 9, "byteOffset" : 12, "componentType" : 5126, "count" : 20, "type" : "VEC3", "max" : [1.0000044107437134, 1.0000044107437134, -0], "min" : [-1.0000044107437134, -1.0000044107437134, -1.0000044107437134]}, {"bufferView" : 0, "byteOffset" : 300, "componentType" : 5123, "count" : 6, "type" : "SCALAR", "max" : [3], "min" : [0]}, {"bufferView" : 10, "byteOffset" : 0, "componentType" : 5126, "count" : 4, "type" : "VEC3", "max" : [11.850390434265137, 11.87007999420166, 0], "min" : [0, 0, 0]}, {"bufferView" : 10, "byteOffset" : 12, "componentType" : 5126, "count" : 4, "type" : "VEC3", "max" : [-0, -0, 1.0000044107437134], "min" : [-0, -0, 1.0000044107437134]}, {"bufferView" : 10, "byteOffset" : 24, "componentType" : 5126, "count" : 4, "type" : "VEC2", "max" : [0, 0.35773611068725586], "min" : [-1, -0]}, {"bufferView" : 0, "byteOffset" : 312, "componentType" : 5123, "count" : 36, "type" : "SCALAR", "max" : [23], "min" : [0]}, {"bufferView" : 11, "byteOffset" : 0, "componentType" : 5126, "count" : 24, "type" : "VEC3", "max" : [5.669291019439697, 5.856298923492432, 5.748031139373779], "min" : [0, 0, 0]}, {"bufferView" : 11, "byteOffset" : 12, "componentType" : 5126, "count" : 24, "type" : "VEC3", "max" : [1.0000044107437134, 1.0000044107437134, 1.0000044107437134], "min" : [-1.0000044107437134, -1.0000044107437134, -1.0000044107437134]}, {"bufferView" : 0, "byteOffset" : 384, "componentType" : 5123, "count" : 30, "type" : "SCALAR", "max" : [19], "min" : [0]}, {"bufferView" : 12, "byteOffset" : 0, "componentType" : 5126, "count" : 20, "type" : "VEC3", "max" : [11.850390434265137, 11.87007999420166, 20.23621940612793], "min" : [0, 0, 0]}, {"bufferView" : 12, "byteOffset" : 12, "componentType" : 5126, "count" : 20, "type" : "VEC3", "max" : [1.0000044107437134, 1.0000044107437134, -0], "min" : [-1.0000044107437134, -1.0000044107437134, -1.0000044107437134]}, {"bufferView" : 0, "byteOffset" : 444, "componentType" : 5123, "count" : 6, "type" : "SCALAR", "max" : [3], "min" : [0]}, {"bufferView" : 13, "byteOffset" : 0, "componentType" : 5126, "count" : 4, "type" : "VEC3", "max" : [11.850390434265137, 11.87007999420166, 0], "min" : [0, 0, 0]}, {"bufferView" : 13, "byteOffset" : 12, "componentType" : 5126, "count" : 4, "type" : "VEC3", "max" : [0, 0, -1.0000044107437134], "min" : [0, 0, -1.0000044107437134]}, {"bufferView" : 0, "byteOffset" : 456, "componentType" : 5123, "count" : 6, "type" : "SCALAR", "max" : [3], "min" : [0]}, {"bufferView" : 14, "byteOffset" : 0, "componentType" : 5126, "count" : 4, "type" : "VEC3", "max" : [11.850390434265137, 11.87007999420166, 0], "min" : [0, 0, 0]}, {"bufferView" : 14, "byteOffset" : 12, "componentType" : 5126, "count" : 4, "type" : "VEC3", "max" : [-0, -0, 1.0000044107437134], "min" : [-0, -0, 1.0000044107437134]}, {"bufferView" : 0, "byteOffset" : 468, "componentType" : 5123, "count" : 30, "type" : "SCALAR", "max" : [19], "min" : [0]}, {"bufferView" : 15, "byteOffset" : 0, "componentType" : 5126, "count" : 20, "type" : "VEC3", "max" : [11.850390434265137, 11.87007999420166, 20.23621940612793], "min" : [0, 0, 0]}, {"bufferView" : 15, "byteOffset" : 12, "componentType" : 5126, "count" : 20, "type" : "VEC3", "max" : [1.0000044107437134, 1.0000044107437134, -0], "min" : [-1.0000044107437134, -1.0000044107437134, -1.0000044107437134]}, {"bufferView" : 0, "byteOffset" : 528, "componentType" : 5123, "count" : 6, "type" : "SCALAR", "max" : [3], "min" : [0]}, {"bufferView" : 16, "byteOffset" : 0, "componentType" : 5126, "count" : 4, "type" : "VEC3", "max" : [11.850390434265137, 11.87007999420166, 0], "min" : [0, 0, 0]}, {"bufferView" : 16, "byteOffset" : 12, "componentType" : 5126, "count" : 4, "type" : "VEC3", "max" : [0, 0, -1.0000044107437134], "min" : [0, 0, -1.0000044107437134]}, {"bufferView" : 0, "byteOffset" : 540, "componentType" : 5123, "count" : 6, "type" : "SCALAR", "max" : [3], "min" : [0]}, {"bufferView" : 17, "byteOffset" : 0, "componentType" : 5126, "count" : 4, "type" : "VEC3", "max" : [11.850390434265137, 11.87007999420166, 0], "min" : [0, 0, 0]}, {"bufferView" : 17, "byteOffset" : 12, "componentType" : 5126, "count" : 4, "type" : "VEC3", "max" : [-0, -0, 1.0000044107437134], "min" : [-0, -0, 1.0000044107437134]}, {"bufferView" : 0, "byteOffset" : 552, "componentType" : 5123, "count" : 30, "type" : "SCALAR", "max" : [19], "min" : [0]}, {"bufferView" : 18, "byteOffset" : 0, "componentType" : 5126, "count" : 20, "type" : "VEC3", "max" : [11.850390434265137, 11.87007999420166, 20.23621940612793], "min" : [0, 0, 0]}, {"bufferView" : 18, "byteOffset" : 12, "componentType" : 5126, "count" : 20, "type" : "VEC3", "max" : [1.0000044107437134, 1.0000044107437134, -0], "min" : [-1.0000044107437134, -1.0000044107437134, -1.0000044107437134]}, {"bufferView" : 0, "byteOffset" : 612, "componentType" : 5123, "count" : 6, "type" : "SCALAR", "max" : [3], "min" : [0]}, {"bufferView" : 19, "byteOffset" : 0, "componentType" : 5126, "count" : 4, "type" : "VEC3", "max" : [11.850390434265137, 11.87007999420166, 0], "min" : [0, 0, 0]}, {"bufferView" : 19, "byteOffset" : 12, "componentType" : 5126, "count" : 4, "type" : "VEC3", "max" : [0, 0, -1.0000044107437134], "min" : [0, 0, -1.0000044107437134]}, {"bufferView" : 0, "byteOffset" : 624, "componentType" : 5123, "count" : 6, "type" : "SCALAR", "max" : [3], "min" : [0]}, {"bufferView" : 20, "byteOffset" : 0, "componentType" : 5126, "count" : 4, "type" : "VEC3", "max" : [11.850390434265137, 11.87007999420166, 0], "min" : [0, 0, 0]}, {"bufferView" : 20, "byteOffset" : 12, "componentType" : 5126, "count" : 4, "type" : "VEC3", "max" : [-0, -0, 1.0000044107437134], "min" : [-0, -0, 1.0000044107437134]}], "asset" : {"generator" : "Aspose.3D 21.1", "version" : "2.0"}, "buffers" : [{"uri" : "buffer.bin", "byteLength" : 8448}], "bufferViews" : [{"buffer" : 0, "byteOffset" : 0, "byteLength" : 636, "target" : 34963}, {"buffer" : 0, "byteOffset" : 640, "byteLength" : 720, "byteStride" : 24, "target" : 34962}, {"buffer" : 0, "byteOffset" : 1364, "byteLength" : 144, "byteStride" : 24, "target" : 34962}, {"buffer" : 0, "byteOffset" : 1512, "byteLength" : 144, "byteStride" : 24, "target" : 34962}, {"buffer" : 0, "byteOffset" : 1660, "byteLength" : 720, "byteStride" : 24, "target" : 34962}, {"buffer" : 0, "byteOffset" : 2384, "byteLength" : 192, "byteStride" : 32, "target" : 34962}, {"buffer" : 0, "byteOffset" : 2580, "byteLength" : 720, "byteStride" : 24, "target" : 34962}, {"buffer" : 0, "byteOffset" : 3304, "byteLength" : 144, "byteStride" : 24, "target" : 34962}, {"buffer" : 0, "byteOffset" : 3452, "byteLength" : 144, "byteStride" : 24, "target" : 34962}, {"buffer" : 0, "byteOffset" : 3600, "byteLength" : 720, "byteStride" : 24, "target" : 34962}, {"buffer" : 0, "byteOffset" : 4324, "byteLength" : 192, "byteStride" : 32, "target" : 34962}, {"buffer" : 0, "byteOffset" : 4520, "byteLength" : 864, "byteStride" : 24, "target" : 34962}, {"buffer" : 0, "byteOffset" : 5388, "byteLength" : 720, "byteStride" : 24, "target" : 34962}, {"buffer" : 0, "byteOffset" : 6112, "byteLength" : 144, "byteStride" : 24, "target" : 34962}, {"buffer" : 0, "byteOffset" : 6260, "byteLength" : 144, "byteStride" : 24, "target" : 34962}, {"buffer" : 0, "byteOffset" : 6408, "byteLength" : 720, "byteStride" : 24, "target" : 34962}, {"buffer" : 0, "byteOffset" : 7132, "byteLength" : 144, "byteStride" : 24, "target" : 34962}, {"buffer" : 0, "byteOffset" : 7280, "byteLength" : 144, "byteStride" : 24, "target" : 34962}, {"buffer" : 0, "byteOffset" : 7428, "byteLength" : 720, "byteStride" : 24, "target" : 34962}, {"buffer" : 0, "byteOffset" : 8152, "byteLength" : 144, "byteStride" : 24, "target" : 34962}, {"buffer" : 0, "byteOffset" : 8300, "byteLength" : 144, "byteStride" : 24, "target" : 34962}], "cameras" : [{"perspective" : {"aspectRatio" : 0, "yfov" : 0.6108652381980153, "zfar" : 1000, "znear" : 1}, "type" : "perspective"}], "images" : [{"uri" : "model/Screen_Shot_2014-09-01_at_5.57.31_PM.png"}, {"uri" : "model/Screen_Shot_2014-09-01_at_5.57.13_PM.png"}, {"uri" : "model/Screen_Shot_2014-09-01_at_5.57.20_PM.png"}, {"uri" : "model/Screen_Shot_2014-09-01_at_5.57.47_PM.png"}, {"uri" : "model/Screen_Shot_2014-09-01_at_5.58.01_PM.png"}], "materials" : [{"pbrMetallicRoughness" : {"baseColorFactor" : [0.6431373, 0.6980392, 0.7333333, 1], "metallicFactor" : 0, "roughnessFactor" : 0}, "emissiveFactor" : [0, 0, 0], "alphaMode" : "OPAQUE", "doubleSided" : false}, {"pbrMetallicRoughness" : {"baseColorFactor" : [0.8, 0.8, 0.8, 1], "baseColorTexture" : {"index" : 0, "texCoord" : 0}, "metallicFactor" : 0, "roughnessFactor" : 0}, "emissiveFactor" : [0, 0, 0], "alphaMode" : "OPAQUE", "doubleSided" : false}, {"pbrMetallicRoughness" : {"baseColorFactor" : [0.6431373, 0.6980392, 0.7333333, 1], "metallicFactor" : 0, "roughnessFactor" : 0}, "emissiveFactor" : [0, 0, 0], "alphaMode" : "OPAQUE", "doubleSided" : false}, {"pbrMetallicRoughness" : {"baseColorFactor" : [0.6431373, 0.6980392, 0.7333333, 1], "metallicFactor" : 0, "roughnessFactor" : 0}, "emissiveFactor" : [0, 0, 0], "alphaMode" : "OPAQUE", "doubleSided" : false}, {"pbrMetallicRoughness" : {"baseColorFactor" : [0.6431373, 0.6980392, 0.7333333, 1], "metallicFactor" : 0, "roughnessFactor" : 0}, "emissiveFactor" : [0, 0, 0], "alphaMode" : "OPAQUE", "doubleSided" : false}, {"pbrMetallicRoughness" : {"baseColorFactor" : [0.6431373, 0.6980392, 0.7333333, 1], "metallicFactor" : 0, "roughnessFactor" : 0}, "emissiveFactor" : [0, 0, 0], "alphaMode" : "OPAQUE", "doubleSided" : false}, {"pbrMetallicRoughness" : {"baseColorFactor" : [0.8, 0.8, 0.8, 1], "baseColorTexture" : {"index" : 1, "texCoord" : 0}, "metallicFactor" : 0, "roughnessFactor" : 0}, "emissiveFactor" : [0, 0, 0], "alphaMode" : "OPAQUE", "doubleSided" : false}, {"pbrMetallicRoughness" : {"baseColorFactor" : [0.6431373, 0.6980392, 0.7333333, 1], "metallicFactor" : 0, "roughnessFactor" : 0}, "emissiveFactor" : [0, 0, 0], "alphaMode" : "OPAQUE", "doubleSided" : false}, {"pbrMetallicRoughness" : {"baseColorFactor" : [0.6431373, 0.6980392, 0.7333333, 1], "metallicFactor" : 0, "roughnessFactor" : 0}, "emissiveFactor" : [0, 0, 0], "alphaMode" : "OPAQUE", "doubleSided" : false}, {"pbrMetallicRoughness" : {"baseColorFactor" : [0.6431373, 0.6980392, 0.7333333, 1], "metallicFactor" : 0, "roughnessFactor" : 0}, "emissiveFactor" : [0, 0, 0], "alphaMode" : "OPAQUE", "doubleSided" : false}, {"pbrMetallicRoughness" : {"baseColorFactor" : [0.6431373, 0.6980392, 0.7333333, 1], "metallicFactor" : 0, "roughnessFactor" : 0}, "emissiveFactor" : [0, 0, 0], "alphaMode" : "OPAQUE", "doubleSided" : false}, {"pbrMetallicRoughness" : {"baseColorFactor" : [0.6431373, 0.6980392, 0.7333333, 1], "metallicFactor" : 0, "roughnessFactor" : 0}, "emissiveFactor" : [0, 0, 0], "alphaMode" : "OPAQUE", "doubleSided" : false}, {"pbrMetallicRoughness" : {"baseColorFactor" : [0.8, 0.8, 0.8, 1], "baseColorTexture" : {"index" : 2, "texCoord" : 0}, "metallicFactor" : 0, "roughnessFactor" : 0}, "emissiveFactor" : [0, 0, 0], "alphaMode" : "OPAQUE", "doubleSided" : false}, {"pbrMetallicRoughness" : {"baseColorFactor" : [0.6431373, 0.6980392, 0.7333333, 1], "metallicFactor" : 0, "roughnessFactor" : 0}, "emissiveFactor" : [0, 0, 0], "alphaMode" : "OPAQUE", "doubleSided" : false}, {"pbrMetallicRoughness" : {"baseColorFactor" : [0.6431373, 0.6980392, 0.7333333, 1], "metallicFactor" : 0, "roughnessFactor" : 0}, "emissiveFactor" : [0, 0, 0], "alphaMode" : "OPAQUE", "doubleSided" : false}, {"pbrMetallicRoughness" : {"baseColorFactor" : [0.8, 0.8, 0.8, 1], "baseColorTexture" : {"index" : 3, "texCoord" : 0}, "metallicFactor" : 0, "roughnessFactor" : 0}, "emissiveFactor" : [0, 0, 0], "alphaMode" : "OPAQUE", "doubleSided" : false}, {"pbrMetallicRoughness" : {"baseColorFactor" : [0.6431373, 0.6980392, 0.7333333, 1], "metallicFactor" : 0, "roughnessFactor" : 0}, "emissiveFactor" : [0, 0, 0], "alphaMode" : "OPAQUE", "doubleSided" : false}, {"pbrMetallicRoughness" : {"baseColorFactor" : [0.6431373, 0.6980392, 0.7333333, 1], "metallicFactor" : 0, "roughnessFactor" : 0}, "emissiveFactor" : [0, 0, 0], "alphaMode" : "OPAQUE", "doubleSided" : false}, {"pbrMetallicRoughness" : {"baseColorFactor" : [0.8, 0.8, 0.8, 1], "baseColorTexture" : {"index" : 4, "texCoord" : 0}, "metallicFactor" : 0, "roughnessFactor" : 0}, "emissiveFactor" : [0, 0, 0], "alphaMode" : "OPAQUE", "doubleSided" : false}, {"pbrMetallicRoughness" : {"baseColorFactor" : [0.6431373, 0.6980392, 0.7333333, 1], "metallicFactor" : 0, "roughnessFactor" : 0}, "emissiveFactor" : [0, 0, 0], "alphaMode" : "OPAQUE", "doubleSided" : false}], "meshes" : [{"primitives" : [{"attributes" : {"POSITION" : 1, "NORMAL" : 2}, "indices" : 0, "material" : 0, "mode" : 4}, {"attributes" : {"POSITION" : 4, "NORMAL" : 5}, "indices" : 3, "material" : 1, "mode" : 4}, {"attributes" : {"POSITION" : 7, "NORMAL" : 8}, "indices" : 6, "material" : 2, "mode" : 4}]}, {"primitives" : [{"attributes" : {"POSITION" : 10, "NORMAL" : 11}, "indices" : 9, "material" : 3, "mode" : 4}, {"attributes" : {"POSITION" : 13, "NORMAL" : 14, "TEXCOORD_0" : 15}, "indices" : 12, "material" : 4, "mode" : 4}]}, {"primitives" : [{"attributes" : {"POSITION" : 17, "NORMAL" : 18}, "indices" : 16, "material" : 5, "mode" : 4}, {"attributes" : {"POSITION" : 20, "NORMAL" : 21}, "indices" : 19, "material" : 6, "mode" : 4}, {"attributes" : {"POSITION" : 23, "NORMAL" : 24}, "indices" : 22, "material" : 7, "mode" : 4}]}, {"primitives" : [{"attributes" : {"POSITION" : 26, "NORMAL" : 27}, "indices" : 25, "material" : 8, "mode" : 4}, {"attributes" : {"POSITION" : 29, "NORMAL" : 30, "TEXCOORD_0" : 31}, "indices" : 28, "material" : 9, "mode" : 4}]}, {"primitives" : [{"attributes" : {"POSITION" : 33, "NORMAL" : 34}, "indices" : 32, "material" : 10, "mode" : 4}]}, {"primitives" : [{"attributes" : {"POSITION" : 36, "NORMAL" : 37}, "indices" : 35, "material" : 11, "mode" : 4}, {"attributes" : {"POSITION" : 39, "NORMAL" : 40}, "indices" : 38, "material" : 12, "mode" : 4}, {"attributes" : {"POSITION" : 42, "NORMAL" : 43}, "indices" : 41, "material" : 13, "mode" : 4}]}, {"primitives" : [{"attributes" : {"POSITION" : 45, "NORMAL" : 46}, "indices" : 44, "material" : 14, "mode" : 4}, {"attributes" : {"POSITION" : 48, "NORMAL" : 49}, "indices" : 47, "material" : 15, "mode" : 4}, {"attributes" : {"POSITION" : 51, "NORMAL" : 52}, "indices" : 50, "material" : 16, "mode" : 4}]}, {"primitives" : [{"attributes" : {"POSITION" : 54, "NORMAL" : 55}, "indices" : 53, "material" : 17, "mode" : 4}, {"attributes" : {"POSITION" : 57, "NORMAL" : 58}, "indices" : 56, "material" : 18, "mode" : 4}, {"attributes" : {"POSITION" : 60, "NORMAL" : 61}, "indices" : 59, "material" : 19, "mode" : 4}]}], "nodes" : [{"camera" : 0, "matrix" : [0.8288563, 0.5594615, 0, 0, -0.1373294, 0.203457, 0.9694049, 0, 0.5423447, -0.8034974, 0.2454672, 0, 117.7235, -45.37847, 18.44687, 1], "name" : "skp_camera_Last_Saved_SketchUp_View"}, {"matrix" : [0.39, 0, 0, 0, 0, 0.39, 0, 0, 0, 0, 0.39, 0, 72.69877, 1.617108, 0, 1], "mesh" : 0, "name" : "group_0"}, {"matrix" : [0.39, 0, 0, 0, 0, 0.39, 0, 0, 0, 0, 0.39, 0, 58.67611, 7.139646, 1.230623E-30, 1], "mesh" : 1, "name" : "group_1"}, {"matrix" : [0.39, 0, 0, 0, 0, 0.39, 0, 0, 0, 0, 0.39, 0, 79.03117, 1.804746, 0, 1], "mesh" : 2, "name" : "group_2"}, {"matrix" : [0.39, 0, 0, 0, 0, 0.39, 0, 0, 0, 0, 0.39, 0, 63.60061, 8.81971, 1.230623E-30, 1], "mesh" : 3, "name" : "group_3"}, {"matrix" : [0.39, 0, 0, 0, 0, 0.39, 0, 0, 0, 0, 0.39, 0, 57.76011, 1.756482, 1.230623E-30, 1], "mesh" : 4, "name" : "group_4"}, {"matrix" : [0.39, 0, 0, 0, 0, 0.39, 0, 0, 0, 0, 0.39, 0, 90.82941, 1.960429, 0, 1], "mesh" : 5, "name" : "group_5"}, {"matrix" : [0.39, 0, 0, 0, 0, 0.39, 0, 0, 0, 0, 0.39, 0, 85.06508, 1.859625, 0, 1], "mesh" : 6, "name" : "group_6"}, {"matrix" : [0.39, 0, 0, 0, 0, 0.39, 0, 0, 0, 0, 0.39, 0, 66.65027, 1.621487, 0, 1], "mesh" : 7, "name" : "group_7"}, {"children" : [0, 1, 2, 3, 4, 5, 6, 7, 8], "name" : "SketchUp"}], "samplers" : [{"magFilter" : 9729, "minFilter" : 9987, "wrapS" : 10497, "wrapT" : 10497}, {"magFilter" : 9729, "minFilter" : 9987, "wrapS" : 10497, "wrapT" : 10497}, {"magFilter" : 9729, "minFilter" : 9987, "wrapS" : 10497, "wrapT" : 10497}, {"magFilter" : 9729, "minFilter" : 9987, "wrapS" : 10497, "wrapT" : 10497}, {"magFilter" : 9729, "minFilter" : 9987, "wrapS" : 10497, "wrapT" : 10497}], "scene" : 0, "scenes" : [{"nodes" : [9]}], "textures" : [{"sampler" : 0, "source" : 0}, {"sampler" : 1, "source" : 1}, {"sampler" : 2, "source" : 2}, {"sampler" : 3, "source" : 3}, {"sampler" : 4, "source" : 4}]}